<?xml version="1.0" encoding="UTF-8" standalone="no"?><!DOCTYPE svg PUBLIC "-//W3C//DTD SVG 1.1//EN" "http://www.w3.org/Graphics/SVG/1.1/DTD/svg11.dtd"><svg width="100%" height="100%" viewBox="0 0 6300 2609" version="1.1" xmlns="http://www.w3.org/2000/svg" xmlns:xlink="http://www.w3.org/1999/xlink" xml:space="preserve" xmlns:serif="http://www.serif.com/" style="fill-rule:evenodd;clip-rule:evenodd;stroke-linecap:round;stroke-linejoin:round;"><g id="cat"><path id="path8" d="M2500.756,1277.58c0,0 -289.338,-1091.282 391.859,-318.955c681.197,772.327 -391.859,318.955 -391.859,318.955Z" style="fill:#fffcf0;fill-rule:nonzero;"/><path id="path10" d="M3809.812,1284.415c0,0 289.338,-1091.282 -391.859,-318.955c-681.197,772.327 391.859,318.955 391.859,318.955Z" style="fill:#fffcf0;fill-rule:nonzero;"/><ellipse id="ellipse15" cx="3158.032" cy="1531.605" rx="734.736" ry="641.328" style="fill:#fffcf0;"/><path id="path13" d="M3077.724,1619.887l151.504,-0.57c0,0 44.995,9.113 10.252,51.83c-34.743,42.717 -63.791,62.082 -63.791,62.082c0,0 -10.822,17.087 -1.709,38.73c9.113,21.643 14.809,29.617 14.809,29.617l41.008,27.339l44.426,23.922c0,0 17.656,30.187 -15.378,25.061c-33.035,-5.126 -102.521,-63.221 -102.521,-63.221c0,0 -67.209,55.817 -89.421,61.513c-22.213,5.696 -57.526,3.987 -23.922,-22.213c33.604,-26.2 82.017,-39.869 93.408,-72.334c11.391,-32.465 -5.696,-52.969 -5.696,-52.969l-59.804,-57.526c0,0 -29.048,-30.756 6.835,-51.261Z" style="fill:#f3cfeb;fill-rule:nonzero;"/><path id="path19" d="M3556.408,1764.788c0,0 250.5,-188.973 575.71,-57.131" style="fill:none;fill-rule:nonzero;stroke:#424242;stroke-width:30.66px;"/><path id="path20" d="M3556.408,1764.788c0,0 250.5,-188.973 575.71,-57.131" style="fill:none;fill-rule:nonzero;stroke:#cecece;stroke-width:30.66px;"/><path id="path21" d="M3560.803,1843.893c0,0 294.447,-92.289 610.868,30.763" style="fill:none;fill-rule:nonzero;stroke:#cfcfcf;stroke-width:30.66px;"/><path id="path22" d="M2756.567,1764.788c0,0 -250.5,-188.973 -575.71,-57.131" style="fill:none;fill-rule:nonzero;stroke:#cfcfcf;stroke-width:30.66px;"/><path id="path23" d="M2752.173,1843.893c0,0 -294.447,-92.289 -610.868,30.763" style="fill:none;fill-rule:nonzero;stroke:#cfcfcf;stroke-width:30.66px;"/><ellipse id="ellipse1" cx="2832.087" cy="1467.032" rx="161.097" ry="162.039" style="fill:#ffd65b;"/><ellipse id="ellipse2" cx="3478.085" cy="1465.421" rx="161.097" ry="162.039" style="fill:#ffd65b;"/><path d="M2514.784,772.841c0,0 -37.952,242.308 23.355,359.082c61.307,116.775 153.172,-43.791 210.877,-137.21c57.705,-93.42 -234.232,-221.872 -234.232,-221.872Z" style="fill:#f3cfeb;stroke:#f3cfeb;stroke-width:4.17px;stroke-miterlimit:1.5;"/><path d="M3796.334,772.841c0,0 37.952,242.308 -23.355,359.082c-61.307,116.775 -153.172,-43.791 -210.877,-137.21c-57.705,-93.42 234.232,-221.872 234.232,-221.872Z" style="fill:#f3cfeb;stroke:#f3cfeb;stroke-width:4.17px;stroke-miterlimit:1.5;"/></g><path d="M2806.799,805.305c0,0 97.594,-443.657 437.205,-521.283c130.788,-29.894 242.892,80.341 276.523,117.709c33.631,37.368 138.261,173.761 138.261,173.761l-24.978,74.736c0,0 -48.882,40.243 -122.625,-7.474c-31.763,-20.552 95.288,145.735 69.131,235.418c-26.158,89.683 -773.516,-72.867 -773.516,-72.867Z" style="fill:#d53939;"/><path d="M3436.967,457.782c0,0 -5.51,-11.632 -15.918,-4.898c-10.408,6.735 -9.796,6.122 -3.061,25.714c6.735,19.592 79.591,151.835 84.489,157.345c4.898,5.51 28.163,22.406 34.897,24.855c6.735,2.449 39.125,7.199 47.754,6.122c91.223,-11.386 24.489,-21.062 35.51,-30c11.02,-8.937 -183.671,-179.139 -183.671,-179.139Z" style="fill:#ba3232;"/><circle cx="3695.516" cy="660.799" r="98.385" style="fill:#fff;"/><path d="M2728.326,842.673c-24.289,41.105 7.474,149.472 7.474,149.472c0,0 -9.342,14.947 41.105,16.816c50.447,1.868 291.47,-31.763 353.127,-18.684c61.657,13.079 106.047,-26.188 358.732,70.999c97.157,37.368 67.609,21.493 110.235,-46.71c28.026,-44.842 14.947,-87.815 14.947,-87.815l-29.894,-36.473c0,0 -177.498,-94.315 -392.363,-107.394c-214.866,-13.079 -315.759,1.868 -369.943,16.816c-54.184,14.947 -69.131,1.868 -93.42,42.973Z" style="fill:#f5f5f5;"/><path d="M2728.498,823.575c-24.744,40.842 7.614,148.517 7.614,148.517c0,0 -9.517,14.852 41.875,16.708c51.392,1.856 296.929,-31.56 359.741,-18.565c62.812,12.995 108.033,-26.02 365.451,70.545c98.976,37.129 68.875,21.356 112.3,-46.412c28.551,-44.555 15.227,-87.254 15.227,-87.254l-30.454,-36.24c0,0 -180.822,-93.712 -399.712,-106.707c-218.89,-12.995 -321.673,1.856 -376.871,16.708c-55.198,14.852 -70.425,1.856 -95.17,42.699Z" style="fill:#fff;"/></svg>