<?xml version="1.0" encoding="UTF-8" standalone="no"?><!DOCTYPE svg PUBLIC "-//W3C//DTD SVG 1.1//EN" "http://www.w3.org/Graphics/SVG/1.1/DTD/svg11.dtd"><svg width="100%" height="100%" viewBox="0 0 267 267" version="1.1" xmlns="http://www.w3.org/2000/svg" xmlns:xlink="http://www.w3.org/1999/xlink" xml:space="preserve" xmlns:serif="http://www.serif.com/" style="fill-rule:evenodd;clip-rule:evenodd;stroke-linejoin:round;stroke-miterlimit:2;"><g><path d="M59.254,140.522c-0.295,-0.023 -8.116,0.075 -15.898,-7.379c-25.43,-24.357 -29.242,-34.351 -31.687,-45.372c-12.774,-57.577 47.551,-94.805 91.161,-73.701c14.827,7.175 22.425,15.023 30.617,28.556c6.715,11.093 110.141,175.986 111.619,179.697c9.232,23.186 -19.922,42.164 -37.241,25.349c-4.524,-4.392 -23.569,-36.986 -38.167,-59.868c-0.15,-0.235 -74.077,-118.815 -76.586,-122.945c-11.741,-19.321 -35.574,-9.792 -36.594,6.91c-0.867,14.209 9.524,19.883 17.811,28.946c16.522,18.07 4.407,39.935 -15.034,39.807Z" style="fill:#ec1b24;"/><path d="M134.518,74.252c-0.188,-5.274 -0.031,-5.257 -0.587,-10.529c-0.887,-8.405 -2.089,-8.384 -1.637,-8.955c0.548,-0.693 0.652,0.162 6.254,9.109c0.6,0.959 6.642,10.61 7.477,12.005c7.382,12.343 8.45,12.143 8.209,16.867c-1.087,21.291 -6.539,31.782 -9.243,38.603c-0.411,1.036 -0.846,2.371 -1.976,0.556c-15.307,-24.598 -15.518,-24.46 -16.629,-26.72c-1.44,-2.928 7.002,-4.654 8.133,-30.936Z" style="fill:#fdfefe;"/><path d="M174.634,121.369c3.716,7.576 17.287,27.042 17.321,28.87c0.273,14.819 -4.162,32.998 -10.85,40.372c-1.3,1.434 -1.796,-0.582 -7.572,-9.725c-8.235,-13.037 -8.015,-13.235 -7.869,-13.671c1.351,-4.053 9.149,-10.149 8.848,-39.456c-0.026,-2.531 -0.115,-2.475 -0.515,-5.01c-0.155,-0.983 -0.339,-1.382 0.638,-1.38Z" style="fill:#fefefe;"/><path d="M87.028,43.238c0.15,-2.963 0.872,-8.847 -2.889,-17.439c-2.289,-5.229 -5.91,-9.286 -6.547,-9.999c-1.787,-2.002 16.345,0.83 25.521,6.192c3.272,1.912 10.026,34.929 5.58,48.239c-0.7,2.095 -1.13,4.939 -2.868,1.973c-13.033,-22.244 -16.346,-20.94 -19.438,-22.652c-0.83,-0.46 0.131,-1.698 0.642,-6.314Z" style="fill:#fefefe;"/><path d="M47.748,69.524c1.423,0.174 1.446,0.101 1.535,0.187c0.491,0.477 0.214,0.57 0.173,2.043c-0.299,10.549 3.08,14.734 4.094,16.59c0.474,0.867 -1.47,2.141 -3.439,4.281c-13.965,15.172 -13.445,23.967 -15.695,21.469c-11.607,-12.888 -13.146,-17.994 -15.443,-25.902c-1.514,-5.212 -1.18,-5.606 0.937,-7.221c14.754,-11.253 25.431,-11.411 27.838,-11.447Z" style="fill:#fefefe;"/><path d="M212.693,182.833c3.238,5.613 15.614,24.479 15.712,25.904c0.062,0.895 0.013,12.17 -6.863,21.85c-2.748,3.868 -9.909,11.108 -11.103,9.503c-1.078,-1.451 -0.726,-1.643 -11.932,-19.187c-1.625,-2.545 1.947,-3.367 7.136,-14.205c7.549,-15.768 5.909,-23.264 6.445,-23.587c0.19,-0.115 0.415,-0.163 0.606,-0.278Z" style="fill:#fefefe;"/><path d="M26.255,49.468c-0.616,0.013 -4.459,0.383 -4.022,-0.722c4.32,-10.921 19.894,-24.81 22.517,-24.485c20.352,2.521 23.951,22.988 22.991,23.98c-0.325,0.336 -6.218,2.018 -10.823,6.678c-1.34,1.356 -1.412,2.129 -3.041,1.134c-7.611,-4.647 -14.985,-6.274 -27.621,-6.585Z" style="fill:#fefefe;"/><path d="M60.515,125.256c-0.013,-1.854 -0.175,-3.826 0.662,-8.522c0.851,-4.778 4.441,-14.645 5.947,-13.31c13.258,11.756 8.563,26.967 -4.358,29.911c-2.008,0.458 -2.138,-3.013 -2.25,-8.079Z" style="fill:#fefefe;"/></g></svg>