<?xml version="1.0" encoding="UTF-8" standalone="no"?><!DOCTYPE svg PUBLIC "-//W3C//DTD SVG 1.1//EN" "http://www.w3.org/Graphics/SVG/1.1/DTD/svg11.dtd"><svg width="100%" height="100%" viewBox="0 0 6300 2134" version="1.1" xmlns="http://www.w3.org/2000/svg" xmlns:xlink="http://www.w3.org/1999/xlink" xml:space="preserve" xmlns:serif="http://www.serif.com/" style="fill-rule:evenodd;clip-rule:evenodd;stroke-linecap:round;stroke-linejoin:round;"><g id="g3"><ellipse id="path4" cx="4630.212" cy="1528.074" rx="286.383" ry="198.587" style="fill:#d53939;"/><ellipse id="path5" cx="4427.444" cy="1609.6" rx="142.146" ry="137.966" style="fill:#d53939;"/><ellipse id="path7" cx="4605.127" cy="1653.498" rx="165.141" ry="140.056" style="fill:#d53939;"/><ellipse id="path9" cx="4780.72" cy="1590.786" rx="156.779" ry="173.502" style="fill:#d53939;"/><path id="path11" d="M4476.569,1597.057c0,0 -20.904,51.215 -6.271,148.418" style="fill:#ba3232;fill-rule:nonzero;stroke:#ba3232;stroke-width:17.08px;"/><path id="path12" d="M4744.138,1614.826c0,0 17.768,75.254 -18.814,137.966" style="fill:#ba3232;fill-rule:nonzero;stroke:#ba3232;stroke-width:17.08px;"/><ellipse id="ellipse12" cx="1741.295" cy="1553.159" rx="286.383" ry="198.587" style="fill:#d53939;"/><ellipse id="ellipse13" cx="1944.062" cy="1634.684" rx="142.146" ry="137.966" style="fill:#d53939;"/><ellipse id="ellipse14" cx="1766.379" cy="1678.583" rx="165.141" ry="140.056" style="fill:#d53939;"/><ellipse id="ellipse17" cx="1590.786" cy="1615.871" rx="156.779" ry="173.502" style="fill:#d53939;"/><path id="path17" d="M1894.938,1622.142c0,0 20.904,51.215 6.271,148.418" style="fill:#ba3232;fill-rule:nonzero;stroke:#ba3232;stroke-width:17.08px;"/><path id="path18" d="M1627.368,1639.91c0,0 -17.768,75.254 18.814,137.966" style="fill:#ba3232;fill-rule:nonzero;stroke:#ba3232;stroke-width:17.08px;"/></g></svg>